<svg width="282" height="177" viewBox="0 0 282 177" fill="none" xmlns="http://www.w3.org/2000/svg">
<g filter="url(#filter0_d_3146_274)">
<path d="M154.613 167.345H141.411V114.173H151.496C158.707 114.173 164.147 115.426 167.814 117.931C171.542 120.437 173.406 123.86 173.406 128.199C173.406 133.394 171.114 137.153 166.53 139.475C169.892 140.637 172.398 142.378 174.048 144.701C175.698 146.962 176.523 149.59 176.523 152.585C176.523 156.985 174.69 160.561 171.023 163.311C167.417 166 161.947 167.345 154.613 167.345ZM154.613 164.595C159.991 164.595 164.514 163.617 168.181 161.661C171.909 159.705 173.773 156.68 173.773 152.585C173.773 150.69 173.07 148.643 171.664 146.443C170.259 144.181 168.089 142.531 165.155 141.492L160.388 139.842L164.789 137.55C166.317 136.756 167.661 135.564 168.822 133.975C170.045 132.325 170.656 130.399 170.656 128.199C170.656 124.349 168.822 121.507 165.155 119.673C161.488 117.84 156.935 116.923 151.496 116.923H144.161V164.595H154.613Z" fill="black"/>
<path d="M93.056 114.173V140.759C93.056 149.865 94.4922 156.283 97.3647 160.011C100.298 163.678 104.302 165.511 109.374 165.511C114.447 165.511 118.42 163.678 121.292 160.011C124.226 156.283 125.693 149.865 125.693 140.759V114.173H128.443V140.759C128.443 159.094 122.087 168.262 109.374 168.262C96.6619 168.262 90.3057 159.094 90.3057 140.759V114.173H93.056Z" fill="black"/>
<path d="M84.1839 164.595V167.345H53.564V114.173H56.3143V164.595H84.1839Z" fill="black"/>
<path d="M10.5091 161.753C7.20877 157.413 5.55859 150.415 5.55859 140.759C5.55859 131.102 7.20877 124.104 10.5091 119.765C13.8095 115.426 19.2795 113.256 26.9192 113.256C34.5589 113.256 40.0594 115.364 43.4209 119.582L41.404 121.415C38.7149 117.809 33.8866 116.006 26.9192 116.006C23.8633 116.006 21.2964 116.342 19.2184 117.015C17.1404 117.626 15.2152 118.818 13.4428 120.59C11.7315 122.301 10.448 124.838 9.59235 128.199C8.73671 131.499 8.30888 135.686 8.30888 140.759C8.30888 145.832 8.73671 150.049 9.59235 153.41C10.448 156.71 11.7315 159.247 13.4428 161.019C15.2152 162.731 17.1404 163.922 19.2184 164.595C21.2964 165.206 23.8633 165.511 26.9192 165.511C33.8866 165.511 38.7149 163.708 41.404 160.102L43.4209 161.936C40.0594 166.153 34.5589 168.262 26.9192 168.262C19.2795 168.262 13.8095 166.092 10.5091 161.753Z" fill="black"/>
<path d="M264.967 38.4125L277.435 65.0904H274.41L261.575 37.5875C261.697 37.5263 262.217 37.2819 263.134 36.854C264.112 36.3651 264.784 36.029 265.151 35.8456C265.517 35.6011 266.128 35.2039 266.984 34.6538C267.84 34.1038 268.481 33.5843 268.909 33.0953C269.337 32.5453 269.795 31.9341 270.284 31.2618C270.834 30.5284 271.232 29.7339 271.476 28.8782C271.721 27.9614 271.843 26.9836 271.843 25.9446C271.843 22.0942 270.009 19.2522 266.342 17.4187C262.675 15.5851 258.122 14.6684 252.683 14.6684H245.348V65.0904H242.598V11.9181H252.683C259.894 11.9181 265.334 13.171 269.001 15.6768C272.729 18.1826 274.593 21.6052 274.593 25.9446C274.593 28.756 273.646 31.2618 271.751 33.462C269.857 35.6011 267.595 37.2513 264.967 38.4125Z" fill="black"/>
<path d="M231.471 59.6815C228.109 63.8986 222.609 66.0071 214.969 66.0071C207.329 66.0071 201.859 63.8375 198.559 59.4981C195.259 55.1588 193.608 48.1608 193.608 38.5042C193.608 28.8477 195.259 21.8497 198.559 17.5104C201.859 13.171 207.329 11.0013 214.969 11.0013C223.831 11.0013 229.851 13.9044 233.029 19.7106L210.569 38.5042H206.26L229.454 19.1605C226.765 15.5546 221.936 13.7516 214.969 13.7516C211.913 13.7516 209.346 14.0878 207.268 14.7601C205.19 15.3712 203.265 16.563 201.493 18.3354C199.781 20.0467 198.498 22.5831 197.642 25.9446C196.787 29.2449 196.359 33.4315 196.359 38.5042C196.359 43.577 196.787 47.7941 197.642 51.1556C198.498 54.4559 199.781 56.9923 201.493 58.7647C203.265 60.476 205.19 61.6678 207.268 62.3401C209.346 62.9513 211.913 63.2568 214.969 63.2568C221.936 63.2568 226.765 61.4539 229.454 57.8479L231.471 59.6815Z" fill="black"/>
<path d="M173.638 45.2883L172.262 42.9047L177.396 39.971C181.613 37.6486 183.722 33.951 183.722 28.8782C183.722 19.405 176.51 14.6684 162.086 14.6684H153.652V83.4256H150.902V11.9181H162.086C170.154 11.9181 176.235 13.4155 180.33 16.4102C184.425 19.3439 186.472 23.4999 186.472 28.8782C186.472 34.99 183.905 39.4821 178.771 42.3546L173.638 45.2883Z" fill="black"/>
<path d="M128.639 45.2883L127.263 42.9047L132.397 39.971C136.614 37.6486 138.723 33.951 138.723 28.8782C138.723 19.405 131.511 14.6684 117.087 14.6684H108.653V83.4256H105.903V11.9181H117.087C125.155 11.9181 131.236 13.4155 135.331 16.4102C139.426 19.3439 141.473 23.4999 141.473 28.8782C141.473 34.99 138.906 39.4821 133.772 42.3546L128.639 45.2883Z" fill="black"/>
<path d="M57.5477 11.9181V38.5042C57.5477 47.6107 58.9839 54.0281 61.8564 57.7562C64.7901 61.4233 68.7933 63.2568 73.866 63.2568C78.9388 63.2568 82.9114 61.4233 85.784 57.7562C88.7176 54.0281 90.1844 47.6107 90.1844 38.5042V11.9181H92.9347V38.5042C92.9347 56.8395 86.5785 66.0071 73.866 66.0071C61.1536 66.0071 54.7974 56.8395 54.7974 38.5042V11.9181H57.5477Z" fill="black"/>
<path d="M6.29191 16.7768C6.29191 10.8484 7.78929 6.57014 10.784 3.94208C13.7788 1.31403 18.6377 0 25.3606 0C30.0666 0 33.8559 1.22235 36.7284 3.66706C39.601 6.11175 41.679 9.83992 42.9624 14.8516L34.4365 21.2689H29.9444L39.8454 13.8431C38.562 9.74825 36.6979 6.87572 34.2532 5.22555C31.8696 3.57538 28.9054 2.75029 25.3606 2.75029C22.9159 2.75029 20.8379 2.90309 19.1266 3.20867C17.4764 3.51426 15.7957 4.12544 14.0844 5.0422C12.4342 5.89784 11.1813 7.30355 10.3257 9.25931C9.47002 11.2151 9.0422 13.7209 9.0422 16.7768C9.0422 19.4659 10.2645 21.8495 12.7092 23.9275C15.2151 26.0055 18.2404 27.7779 21.7852 29.2447C25.33 30.7116 28.8748 32.2089 32.4197 33.7369C36.0256 35.2648 39.0509 37.2206 41.4956 39.6042C44.0014 41.9878 45.2543 44.738 45.2543 47.855C45.2543 53.9668 43.7264 58.52 40.6705 61.5148C37.6758 64.5096 32.5113 66.0069 25.1772 66.0069C19.1877 66.0069 14.4817 64.8152 11.0591 62.4316C7.63649 59.9869 5.28347 56.2281 4 51.1554L6.56694 50.0553C7.78929 55.0058 9.86728 58.4589 12.8009 60.4147C15.7957 62.3093 19.9211 63.2567 25.1772 63.2567C31.0445 63.2567 35.3839 62.126 38.1953 59.8646C41.0678 57.6033 42.5041 53.6001 42.5041 47.855C42.5041 45.1659 41.2511 42.7823 38.7453 40.7043C36.3006 38.6263 33.2753 36.8539 29.6694 35.3871C26.1245 33.9202 22.5797 32.4229 19.0349 30.8949C15.4901 29.367 12.4648 27.4112 9.95896 25.0276C7.51426 22.644 6.29191 19.8938 6.29191 16.7768Z" fill="black"/>
<path fill-rule="evenodd" clip-rule="evenodd" d="M259.529 113.67C252.5 120.286 251.125 122.582 252.031 126.191C252.384 127.597 252.091 128.113 249.835 130.056L247.231 132.298L245.317 130.443C243.814 128.986 243.525 128.361 243.969 127.53C245.002 125.6 244.599 120.902 243.187 118.41C240.468 113.608 233.189 109.776 226.788 109.776C222.587 109.776 220.521 111.135 219.617 114.496C218.368 119.133 221.598 127.86 226.054 131.885C228.759 134.331 231.352 135.024 235.812 134.496C238.399 134.189 239.051 134.325 240.208 135.413C240.956 136.115 241.568 136.988 241.568 137.353C241.568 137.718 236.372 142.924 230.02 148.923C223.669 154.922 218.327 160.207 218.15 160.668C216.859 164.035 218.859 167.344 222.184 167.344C224.269 167.344 224.296 167.319 242.635 148.353L247.512 143.308L250.905 146.869C270.465 167.395 270.411 167.344 272.551 167.344C275.131 167.344 277.177 165.321 277.177 162.77C277.177 160.893 275.457 159.066 257.73 142.132L252.824 137.445L255.06 135.138C256.917 133.222 257.599 132.879 259.088 133.114C262.682 133.681 265.183 132.138 271.604 125.393C277.676 119.015 278.422 117.787 277.059 116.423C275.809 115.173 274.784 115.633 271.042 119.125C264.525 125.209 263.776 125.602 268.295 120.567C274.031 114.177 274.047 114.153 273.256 112.892C271.886 110.706 270.348 111.354 265.084 116.337C262.269 119.002 259.966 120.94 259.966 120.644C259.966 120.349 261.066 119.051 262.411 117.76C263.755 116.47 265.889 114.124 267.154 112.548C269.033 110.205 269.341 109.473 268.843 108.542C268.508 107.915 267.773 107.402 267.21 107.402C266.648 107.402 263.191 110.222 259.529 113.67ZM263.488 113.782C257.847 119.629 257.432 120.207 257.875 121.603C258.642 124.017 260.816 123.077 266.159 118.02C268.955 115.373 271.242 113.45 271.242 113.747C271.242 114.044 269.106 116.614 266.495 119.46C263.883 122.304 261.747 124.876 261.747 125.174C261.747 125.883 263.455 127.581 264.168 127.581C264.474 127.581 267.192 125.381 270.209 122.693L275.694 117.807L270.988 123.027C264.824 129.865 263.251 131.142 260.989 131.142C259.547 131.142 259.294 130.983 259.847 130.43C260.785 129.492 260.758 128.174 259.801 128.174C259.383 128.174 257.342 129.889 255.265 131.984C251.987 135.292 251.343 135.704 250.386 135.106C249.78 134.727 249.283 134.103 249.283 133.72C249.283 133.336 251.019 131.498 253.141 129.635C256.812 126.413 257.917 124.613 256.227 124.613C255.803 124.613 255.135 124.934 254.743 125.326C254.19 125.879 254.031 125.597 254.031 124.053C254.031 122.333 254.841 121.244 260.079 115.922C263.405 112.542 266.403 109.776 266.74 109.776C267.077 109.776 265.614 111.579 263.488 113.782ZM234.305 113.612C240.381 116.349 243.621 121.083 242.493 125.575L242.101 127.137L240.758 125.876C239.341 124.545 238.284 124.278 237.764 125.12C237.509 125.533 250.273 137.989 272.236 158.761C273.974 160.405 275.397 162.189 275.397 162.725C275.397 164.01 273.8 165.564 272.479 165.564C271.87 165.564 263.954 157.698 253.678 146.88C243.917 136.604 235.596 128.191 235.188 128.186C234.052 128.168 234.306 129.643 235.647 130.857C238.112 133.088 233.476 133.708 229.333 131.702C225.158 129.681 221.39 122.644 221.39 116.867C221.39 114.466 221.646 113.814 223.022 112.728C225.185 111.02 229.261 111.339 234.305 113.612ZM244.833 140.639C245.885 141.801 245.826 141.914 242.123 145.832C223.06 165.999 222.21 166.74 220.321 164.852C218.494 163.025 219.594 161.578 231.22 150.507C237.606 144.426 243.039 139.451 243.295 139.451C243.549 139.451 244.242 139.985 244.833 140.639Z" fill="black"/>
</g>
<defs>
<filter id="filter0_d_3146_274" x="0" y="0" width="281.639" height="176.262" filterUnits="userSpaceOnUse" color-interpolation-filters="sRGB">
<feFlood flood-opacity="0" result="BackgroundImageFix"/>
<feColorMatrix in="SourceAlpha" type="matrix" values="0 0 0 0 0 0 0 0 0 0 0 0 0 0 0 0 0 0 127 0" result="hardAlpha"/>
<feOffset dy="4"/>
<feGaussianBlur stdDeviation="2"/>
<feComposite in2="hardAlpha" operator="out"/>
<feColorMatrix type="matrix" values="0 0 0 0 0 0 0 0 0 0 0 0 0 0 0 0 0 0 0.25 0"/>
<feBlend mode="normal" in2="BackgroundImageFix" result="effect1_dropShadow_3146_274"/>
<feBlend mode="normal" in="SourceGraphic" in2="effect1_dropShadow_3146_274" result="shape"/>
</filter>
</defs>
</svg>
