<svg width="24" height="23" viewBox="0 0 24 23" fill="none" xmlns="http://www.w3.org/2000/svg">
<path fill-rule="evenodd" clip-rule="evenodd" d="M16.5869 2.52121C13.9577 4.99617 13.4433 5.85512 13.7821 7.20516C13.9142 7.7311 13.8045 7.92403 12.9606 8.65088L11.9867 9.48964L11.2707 8.79564C10.7086 8.2506 10.6002 8.01661 10.7665 7.70579C11.1528 6.98404 11.0021 5.22662 10.4739 4.29418C9.45666 2.4979 6.73394 1.06461 4.33957 1.06461C2.76796 1.06461 1.99515 1.57301 1.65681 2.83003C1.18971 4.56481 2.3981 7.82945 4.06473 9.33512C5.07687 10.2498 6.0466 10.5091 7.715 10.3115C8.68296 10.1967 8.9265 10.2476 9.35964 10.6547C9.63938 10.9174 9.86826 11.244 9.86826 11.3803C9.86826 11.5168 7.92435 13.4643 5.54841 15.7083C3.17247 17.9524 1.17438 19.9296 1.10823 20.1021C0.625134 21.3614 1.3733 22.5995 2.61722 22.5995C3.39692 22.5995 3.40713 22.59 10.2672 15.4952L12.0917 13.6081L13.3611 14.9402C20.6779 22.6186 20.6577 22.5995 21.4583 22.5995C22.4233 22.5995 23.1888 21.8427 23.1888 20.8885C23.1888 20.186 22.5452 19.5029 15.9142 13.1681L14.0789 11.4147L14.9152 10.5519C15.6101 9.83508 15.865 9.70698 16.4222 9.7949C17.7665 10.0067 18.702 9.42947 21.1039 6.90656C23.3753 4.52063 23.6546 4.06129 23.1444 3.55111C22.6769 3.08356 22.2935 3.25562 20.8939 4.56192C18.4558 6.83752 18.1756 6.98471 19.8662 5.10118C22.0119 2.71081 22.0177 2.70193 21.722 2.23016C21.2094 1.4125 20.6341 1.65493 18.6649 3.51892C17.6119 4.51574 16.7505 5.2406 16.7505 5.13004C16.7505 5.01948 17.1619 4.53395 17.665 4.0513C18.1679 3.56865 18.9662 2.69105 19.4393 2.10139C20.1422 1.2249 20.2576 0.951165 20.0711 0.602832C19.9457 0.36839 19.6709 0.176575 19.4604 0.176575C19.2499 0.176575 17.9569 1.23156 16.5869 2.52121ZM18.068 2.56317C15.9578 4.75041 15.8026 4.96642 15.9684 5.48881C16.255 6.39194 17.0685 6.04028 19.067 4.14854C20.1129 3.15838 20.9687 2.43907 20.9687 2.55007C20.9687 2.66108 20.1695 3.6226 19.1926 4.68691C18.2158 5.751 17.4166 6.71297 17.4166 6.82442C17.4166 7.08972 18.0555 7.72489 18.3224 7.72489C18.4367 7.72489 19.4537 6.90212 20.5822 5.89664L22.6338 4.06862L20.8735 6.02141C18.5677 8.5794 17.9794 9.05694 17.1331 9.05694C16.5938 9.05694 16.499 8.99766 16.7061 8.79053C17.0569 8.43975 17.0467 7.94689 16.6886 7.94689C16.5325 7.94689 15.769 8.58828 14.992 9.37219C13.7659 10.6095 13.525 10.7635 13.1669 10.5397C12.94 10.3981 12.7544 10.1648 12.7544 10.0213C12.7544 9.87793 13.4038 9.19037 14.1974 8.49348C15.5706 7.28797 15.9842 6.61484 15.3519 6.61484C15.1932 6.61484 14.9434 6.73472 14.7969 6.88125C14.5897 7.08839 14.5305 6.98271 14.5305 6.40504C14.5305 5.76188 14.8335 5.3545 16.7927 3.36352C18.0369 2.09917 19.1582 1.06461 19.2843 1.06461C19.4104 1.06461 18.8632 1.73907 18.068 2.56317ZM7.15132 2.49946C9.42402 3.52336 10.6362 5.29433 10.2144 6.9745L10.0676 7.55904L9.56522 7.08705C9.03529 6.58909 8.63989 6.4894 8.44541 6.80421C8.34994 6.95873 13.1247 11.6185 21.3404 19.3886C21.9906 20.0035 22.5228 20.6709 22.5228 20.8714C22.5228 21.3523 21.9256 21.9335 21.4314 21.9335C21.2034 21.9335 18.2425 18.991 14.3984 14.9444C10.7468 11.1003 7.63441 7.95333 7.48167 7.95111C7.05674 7.94467 7.15154 8.49637 7.6535 8.9506C8.57528 9.78491 6.84139 10.0169 5.29132 9.26652C3.72949 8.51035 2.31995 5.87799 2.31995 3.71695C2.31995 2.81893 2.41608 2.57494 2.93048 2.16888C3.73992 1.52994 5.26446 1.64938 7.15132 2.49946ZM11.0898 12.6095C11.4832 13.0442 11.461 13.0866 10.0758 14.5521C2.94469 22.0962 2.62677 22.3735 1.92034 21.6671C1.237 20.9837 1.64838 20.4422 5.99731 16.3009C8.38613 14.0262 10.4186 12.1651 10.5141 12.1651C10.6093 12.1651 10.8684 12.3651 11.0898 12.6095Z" fill="black"/>
</svg>
